<svg xmlns="http://www.w3.org/2000/svg" viewBox="0 0 640 820">
  <defs><linearGradient id="bg" x2="1" y2="1"><stop stop-color="#251c35"/><stop offset="1" stop-color="#090811"/></linearGradient><linearGradient id="j"><stop stop-color="#191823"/><stop offset="1" stop-color="#050609"/></linearGradient><linearGradient id="hair" x2=".8" y2="1"><stop stop-color="#e5e7ee"/><stop offset=".45" stop-color="#8b8e9e"/><stop offset="1" stop-color="#353747"/></linearGradient><radialGradient id="skin"><stop stop-color="#f0c7ad"/><stop offset="1" stop-color="#b9796c"/></radialGradient><filter id="gl"><feGaussianBlur stdDeviation="18"/></filter></defs>
  <rect width="640" height="820" fill="url(#bg)"/><circle cx="320" cy="310" r="205" fill="none" stroke="#a786ff" stroke-opacity=".24" stroke-width="2"/><circle cx="320" cy="320" r="160" fill="#9b7bff" opacity=".1" filter="url(#gl)"/>
  <path d="M91 820c24-191 105-273 229-273s207 83 229 273" fill="url(#j)"/><path d="M260 517h120l17 120-76 59-78-59z" fill="url(#skin)"/><ellipse cx="320" cy="351" rx="125" ry="166" fill="url(#skin)"/>
  <path d="M186 342c-17-117 30-211 135-224 79-10 145 43 146 157-44-49-96-78-160-77-18 35-57 73-115 96z" fill="url(#hair)"/><path d="M215 243c15-66 47-105 101-124-104 9-150 83-129 225z" fill="#979aa9"/><path d="M451 270c28 95 2 201-51 249 53-17 78-81 68-167-4-32-9-57-17-82z" fill="#555767"/>
  <path d="M254 344q31-17 60 1" fill="none" stroke="#443034" stroke-width="7" stroke-linecap="round"/><path d="M347 345q29-18 58 1" fill="none" stroke="#443034" stroke-width="7" stroke-linecap="round"/><circle cx="285" cy="352" r="9" fill="#20202a"/><circle cx="378" cy="352" r="9" fill="#20202a"/><circle cx="288" cy="349" r="3" fill="#ae91ff"/><circle cx="381" cy="349" r="3" fill="#ae91ff"/><path d="M327 370l-9 51 21 3" fill="none" stroke="#9f675d" stroke-width="5" stroke-linecap="round"/><path d="M286 457q35 25 72 0" fill="none" stroke="#774552" stroke-width="7" stroke-linecap="round"/>
  <path d="M91 820c18-142 71-222 153-252l77 128 76-128c84 30 136 114 152 252" fill="url(#j)"/><path d="M244 568l77 128-61 50-70-144zM397 568l-76 128 62 50 69-144z" fill="#34323f"/><path d="M177 698l-30 122M465 698l30 122" stroke="#9b7bff" stroke-width="5" opacity=".65"/><rect x="296" y="715" width="50" height="20" rx="10" fill="#9b7bff" opacity=".7"/>
</svg>
